<svg xmlns="http://www.w3.org/2000/svg" viewBox="0 0 64 64">
  <defs>
    <linearGradient id="g" x1="0" x2="1" y1="0" y2="1">
      <stop offset="0%" stop-color="#f97316" />
      <stop offset="100%" stop-color="#ea580c" />
    </linearGradient>
  </defs>
  <rect x="6" y="6" width="52" height="52" rx="14" fill="url(#g)" />
  <path
    d="M38.8 17.7a2.8 2.8 0 0 1 4 0l3.5 3.5a2.8 2.8 0 0 1 0 4l-4.4 4.4a2.8 2.8 0 0 0-.7 2.7l2.1 8.2a2.8 2.8 0 0 1-3.4 3.4l-8.2-2.1a2.8 2.8 0 0 0-2.7.7l-4.4 4.4a2.8 2.8 0 0 1-4 0l-3.5-3.5a2.8 2.8 0 0 1 0-4l4.4-4.4a2.8 2.8 0 0 0 .7-2.7l-2.1-8.2a2.8 2.8 0 0 1 3.4-3.4l8.2 2.1a2.8 2.8 0 0 0 2.7-.7l4.4-4.4Z"
    fill="#fff"
  />
</svg>
